<svg xmlns="http://www.w3.org/2000/svg" width="1800" height="1040" viewBox="0 0 1800 1040" role="img" aria-labelledby="title desc">
  <title id="title">Dashboard da Pyper</title>
  <desc id="desc">Interface da Pyper com menu lateral, quadro kanban e cards de tarefas.</desc>
  <defs>
    <filter id="softShadow" x="-20%" y="-20%" width="140%" height="150%">
      <feDropShadow dx="0" dy="18" stdDeviation="24" flood-color="#1a1c1d" flood-opacity="0.08"/>
    </filter>
    <filter id="cardShadow" x="-20%" y="-20%" width="140%" height="150%">
      <feDropShadow dx="0" dy="9" stdDeviation="13" flood-color="#1a1c1d" flood-opacity="0.07"/>
    </filter>
    <linearGradient id="sidebar" x1="0" x2="0" y1="0" y2="1">
      <stop offset="0%" stop-color="#fbfcfb"/>
      <stop offset="100%" stop-color="#f7f9f8"/>
    </linearGradient>
    <linearGradient id="page" x1="0" x2="0" y1="0" y2="1">
      <stop offset="0%" stop-color="#ffffff"/>
      <stop offset="100%" stop-color="#fbfcfb"/>
    </linearGradient>
    <style>
      .label{font:700 25px Inter, ui-sans-serif, system-ui, sans-serif;fill:#6d7771}
      .small{font:800 22px Inter, ui-sans-serif, system-ui, sans-serif;fill:#6d7771}
      .body{font:750 29px Inter, ui-sans-serif, system-ui, sans-serif;fill:#26302b}
      .muted{fill:#7b8580}
      .green{fill:#006d3d}
      .tag{font:800 22px Inter, ui-sans-serif, system-ui, sans-serif;fill:#6d50c7}
      .id{font:850 24px Inter, ui-sans-serif, system-ui, sans-serif;fill:#6d7771}
    </style>
  </defs>

  <rect width="1800" height="1040" rx="24" fill="#ffffff"/>
  <rect x="1.5" y="1.5" width="1797" height="1037" rx="22.5" fill="none" stroke="#e2e7e4" stroke-width="3"/>
  <rect x="0" y="0" width="355" height="1040" fill="url(#sidebar)"/>
  <line x1="355" x2="355" y1="0" y2="1040" stroke="#e7ece9" stroke-width="3"/>

  <text x="70" y="118" font-family="Inter, ui-sans-serif, system-ui, sans-serif" font-size="64" font-weight="900" letter-spacing="-6" fill="#38ad5f">pyper</text>

  <g transform="translate(70 215)">
    <rect width="240" height="70" rx="15" fill="#e8f8ec"/>
    <rect x="24" y="24" width="24" height="24" rx="5" fill="none" stroke="#006d3d" stroke-width="4"/>
    <text x="66" y="45" font-family="Inter, ui-sans-serif, system-ui, sans-serif" font-size="27" font-weight="850" fill="#006d3d">Quadro</text>
  </g>

  <g class="label">
    <g transform="translate(70 345)">
      <rect width="24" height="24" x="0" y="-22" rx="5" fill="none" stroke="#9ca8a2" stroke-width="4"/>
      <text x="66" y="0">Planejamento</text>
    </g>
    <g transform="translate(70 435)">
      <rect width="24" height="24" x="0" y="-22" rx="5" fill="none" stroke="#9ca8a2" stroke-width="4"/>
      <text x="66" y="0">Brainstorm</text>
    </g>
    <g transform="translate(70 525)">
      <rect width="24" height="24" x="0" y="-22" rx="5" fill="none" stroke="#9ca8a2" stroke-width="4"/>
      <text x="66" y="0">CRMs</text>
    </g>
    <g transform="translate(70 615)">
      <rect width="24" height="24" x="0" y="-22" rx="5" fill="none" stroke="#9ca8a2" stroke-width="4"/>
      <text x="66" y="0">Metas</text>
    </g>
    <g transform="translate(70 705)">
      <rect width="24" height="24" x="0" y="-22" rx="5" fill="none" stroke="#9ca8a2" stroke-width="4"/>
      <text x="66" y="0">Revisões</text>
    </g>
    <g transform="translate(70 795)">
      <rect width="24" height="24" x="0" y="-22" rx="5" fill="none" stroke="#9ca8a2" stroke-width="4"/>
      <text x="66" y="0">Dashboards</text>
    </g>
  </g>

  <rect x="355" y="0" width="1445" height="1040" fill="url(#page)"/>
  <rect x="355" y="0" width="1445" height="138" fill="#ffffff"/>
  <line x1="355" x2="1800" y1="138" y2="138" stroke="#e8eeeb" stroke-width="3"/>

  <text x="405" y="88" font-family="Inter, ui-sans-serif, system-ui, sans-serif" font-size="40" font-weight="900" fill="#1a1c1d">Sprint 9</text>
  <rect x="555" y="45" width="160" height="48" rx="24" fill="#e5f8eb"/>
  <text x="580" y="77" font-family="Inter, ui-sans-serif, system-ui, sans-serif" font-size="22" font-weight="850" fill="#168346">Em andamento</text>

  <text x="775" y="82" font-family="Inter, ui-sans-serif, system-ui, sans-serif" font-size="27" font-weight="900" fill="#006d3d">Quadro</text>
  <rect x="775" y="118" width="90" height="4" rx="2" fill="#69dd96"/>
  <text x="910" y="82" class="label">Lista</text>
  <text x="1018" y="82" class="label">Calendário</text>
  <text x="1205" y="82" class="label">Analytics</text>

  <rect x="1450" y="38" width="300" height="62" rx="16" fill="#ffffff" stroke="#e5ebe8" stroke-width="2"/>
  <circle cx="1487" cy="69" r="12" fill="none" stroke="#a3ada8" stroke-width="4"/>
  <line x1="1498" x2="1511" y1="80" y2="93" stroke="#a3ada8" stroke-width="4" stroke-linecap="round"/>
  <text x="1530" y="78" font-family="Inter, ui-sans-serif, system-ui, sans-serif" font-size="24" font-weight="650" fill="#a3ada8">Buscar por título ou código</text>

  <g transform="translate(405 206)">
    <text class="small" x="0" y="0">A fazer</text>
    <circle cx="104" cy="-8" r="22" fill="#eef1ef"/>
    <text x="91" y="0" class="small">13</text>
    <text x="318" y="0" font-family="Inter, ui-sans-serif, system-ui, sans-serif" font-size="36" fill="#9ba59f">+</text>
  </g>
  <g transform="translate(780 206)">
    <text class="small" x="0" y="0">Fazendo</text>
    <circle cx="132" cy="-8" r="22" fill="#eef1ef"/>
    <text x="118" y="0" class="small">16</text>
    <text x="330" y="0" font-family="Inter, ui-sans-serif, system-ui, sans-serif" font-size="36" fill="#9ba59f">+</text>
  </g>
  <g transform="translate(1155 206)">
    <text class="small" x="0" y="0">Revisão</text>
    <circle cx="116" cy="-8" r="22" fill="#eef1ef"/>
    <text x="106" y="0" class="small">7</text>
    <text x="330" y="0" font-family="Inter, ui-sans-serif, system-ui, sans-serif" font-size="36" fill="#9ba59f">+</text>
  </g>
  <g transform="translate(1530 206)">
    <text class="small" x="0" y="0">Resolvido</text>
    <circle cx="146" cy="-8" r="22" fill="#eef1ef"/>
    <text x="136" y="0" class="small">9</text>
  </g>

  <g filter="url(#cardShadow)">
    <g transform="translate(405 248)">
      <rect width="342" height="262" rx="16" fill="#ffffff" stroke="#e8eeeb" stroke-width="2"/>
      <rect width="5" height="262" rx="3" fill="#d6f7df"/>
      <text x="28" y="50" class="id">PYP-503</text>
      <text x="28" y="105" class="body">[M&amp;S] flow: enhance goal</text>
      <text x="28" y="142" class="body">assignment and template</text>
      <text x="28" y="179" class="body">sync</text>
      <rect x="28" y="210" width="88" height="43" rx="11" fill="#f0ecff"/>
      <text x="43" y="239" class="tag">urgent</text>
      <circle cx="295" cy="232" r="25" fill="#d9fbef"/>
      <text x="280" y="241" font-family="Inter, ui-sans-serif, system-ui, sans-serif" font-size="20" font-weight="900" fill="#079452">PR</text>
    </g>
    <g transform="translate(405 540)">
      <rect width="342" height="246" rx="16" fill="#ffffff" stroke="#e8eeeb" stroke-width="2"/>
      <rect width="5" height="246" rx="3" fill="#d6f7df"/>
      <text x="28" y="50" class="id">PYP-328</text>
      <text x="28" y="106" class="body">Duplicidade de signup no</text>
      <text x="28" y="143" class="body">login no onboarding</text>
      <rect x="28" y="174" width="62" height="43" rx="11" fill="#f0ecff"/>
      <text x="43" y="203" class="tag">bug</text>
      <circle cx="295" cy="197" r="25" fill="#d9fbef"/>
      <text x="282" y="206" font-family="Inter, ui-sans-serif, system-ui, sans-serif" font-size="20" font-weight="900" fill="#079452">IA</text>
    </g>
    <g transform="translate(780 248)">
      <rect width="342" height="246" rx="16" fill="#ffffff" stroke="#e8eeeb" stroke-width="2"/>
      <rect width="5" height="246" rx="3" fill="#d6f7df"/>
      <text x="28" y="50" class="id">PYP-327</text>
      <text x="28" y="108" class="body">Integração de Pedido ao</text>
      <text x="28" y="145" class="body">Conta Azul</text>
      <rect x="28" y="176" width="126" height="43" rx="11" fill="#f0ecff"/>
      <text x="43" y="205" class="tag">integration</text>
      <circle cx="295" cy="198" r="25" fill="#d9fbef"/>
      <text x="281" y="207" font-family="Inter, ui-sans-serif, system-ui, sans-serif" font-size="20" font-weight="900" fill="#079452">DS</text>
    </g>
    <g transform="translate(780 522)">
      <rect width="342" height="246" rx="16" fill="#ffffff" stroke="#e8eeeb" stroke-width="2"/>
      <rect width="5" height="246" rx="3" fill="#d6f7df"/>
      <text x="28" y="50" class="id">PYP-499</text>
      <text x="28" y="108" class="body">[N&amp;C] Feature manager:</text>
      <text x="28" y="145" class="body">notify days</text>
      <rect x="28" y="176" width="170" height="43" rx="11" fill="#f0ecff"/>
      <text x="43" y="205" class="tag">change request</text>
      <circle cx="295" cy="198" r="25" fill="#d9fbef"/>
      <text x="284" y="207" font-family="Inter, ui-sans-serif, system-ui, sans-serif" font-size="20" font-weight="900" fill="#079452">AI</text>
    </g>
    <g transform="translate(1155 248)">
      <rect width="342" height="246" rx="16" fill="#ffffff" stroke="#e8eeeb" stroke-width="2"/>
      <rect width="5" height="246" rx="3" fill="#d6f7df"/>
      <text x="28" y="50" class="id">PYP-216</text>
      <text x="28" y="108" class="body">[Bug] Card demons para</text>
      <text x="28" y="145" class="body">abrir via não aberto</text>
      <rect x="28" y="176" width="125" height="43" rx="11" fill="#f0ecff"/>
      <text x="43" y="205" class="tag">calendario</text>
      <circle cx="295" cy="198" r="25" fill="#d9fbef"/>
      <text x="280" y="207" font-family="Inter, ui-sans-serif, system-ui, sans-serif" font-size="20" font-weight="900" fill="#079452">FM</text>
    </g>
    <g transform="translate(1155 522)">
      <rect width="342" height="246" rx="16" fill="#ffffff" stroke="#e8eeeb" stroke-width="2"/>
      <rect width="5" height="246" rx="3" fill="#d6f7df"/>
      <text x="28" y="50" class="id">PYP-372</text>
      <text x="28" y="108" class="body">Integração com o Online -</text>
      <text x="28" y="145" class="body">Mockupool</text>
      <rect x="28" y="176" width="126" height="43" rx="11" fill="#f0ecff"/>
      <text x="43" y="205" class="tag">integração</text>
      <circle cx="295" cy="198" r="25" fill="#d9fbef"/>
      <text x="281" y="207" font-family="Inter, ui-sans-serif, system-ui, sans-serif" font-size="20" font-weight="900" fill="#079452">PX</text>
    </g>
    <g transform="translate(1530 248)">
      <rect width="342" height="246" rx="16" fill="#ffffff" stroke="#e8eeeb" stroke-width="2"/>
      <rect width="5" height="246" rx="3" fill="#d6f7df"/>
      <text x="28" y="50" class="id">PYP-216</text>
      <text x="28" y="108" class="body">Módulo de calendário</text>
      <text x="28" y="145" class="body">interno com filtros</text>
      <rect x="28" y="176" width="74" height="43" rx="11" fill="#f0ecff"/>
      <text x="43" y="205" class="tag">infra</text>
    </g>
    <g transform="translate(1530 522)">
      <rect width="342" height="246" rx="16" fill="#ffffff" stroke="#e8eeeb" stroke-width="2"/>
      <rect width="5" height="246" rx="3" fill="#d6f7df"/>
      <text x="28" y="50" class="id">PYP-495</text>
      <text x="28" y="108" class="body">Adicionar regra implícita</text>
      <text x="28" y="145" class="body">nos formulários</text>
      <rect x="28" y="176" width="75" height="43" rx="11" fill="#f0ecff"/>
      <text x="43" y="205" class="tag">forms</text>
    </g>
  </g>
</svg>
